# xmcd
#
# Track frame offsets:
#	150
#	18639
#	34262
#	54259
#	67653
#	88263
#	111604
#	133903
#	157446
#	179047
#	187320
#	207041
#	213290
#	237024
#	261681
#	277288
#	283226
#	287742
#
# Disc length: 3887 seconds
#
# Revision: 1206629369
# Processed by: cddbd v1.5.2PL0 Copyright (c) Steve Scherf et al.
# Submitted via: audiograbber 1.83.01
#
DISCID=340f2d12
DTITLE=Neil Diamond - Hot August Night III [CD 2)
DYEAR=2018
DGENRE=Singer/Songwriter
TTITLE0=And The Grass Won't Pay No Mind [live]
TTITLE1=Pretty Amazing Grace [live]
TTITLE2=We [live]
TTITLE3=Stones [live]
TTITLE4=You Don't Bring Me Flowers [live with Linda Press]
TTITLE5=Holly Holy [live]
TTITLE6=Morningside [live]
TTITLE7=Crunchy Granola Suite [live]
TTITLE8=Sweet Caroline [live]
TTITLE9=Sweet Caroline - Reprise [live]
TTITLE10=I Am....I Said [live]
TTITLE11=Walk Off [live]
TTITLE12=America [live]
TTITLE13=Brother Love's Travelling Salvation Show [live]
TTITLE14=I've Been This Way Before [live]
TTITLE15=Walk Off [live]
TTITLE16=Band Bows [live]
TTITLE17=Audience Exit [live]
EXTD=
EXTT0=
EXTT1=
EXTT2=
EXTT3=
EXTT4=
EXTT5=
EXTT6=
EXTT7=
EXTT8=
EXTT9=
EXTT10=
EXTT11=
EXTT12=
EXTT13=
EXTT14=
EXTT15=
EXTT16=
EXTT17=
PLAYORDER=
